<svg width="64" height="64" viewBox="0 0 64 64" fill="none" xmlns="http://www.w3.org/2000/svg">
<path d="M53.3333 53.3333H10.6666C9.2521 53.3333 7.89554 52.7714 6.89535 51.7712C5.89515 50.771 5.33325 49.4145 5.33325 48V16C5.33325 14.5855 5.89515 13.2289 6.89535 12.2288C7.89554 11.2286 9.2521 10.6667 10.6666 10.6667H53.3333C54.7477 10.6667 56.1043 11.2286 57.1045 12.2288C58.1047 13.2289 58.6666 14.5855 58.6666 16V48C58.6666 49.4145 58.1047 50.771 57.1045 51.7712C56.1043 52.7714 54.7477 53.3333 53.3333 53.3333ZM10.6666 16V48H53.3333V16H10.6666ZM15.9999 24H47.9999V29.3333H15.9999V24ZM15.9999 34.6667H42.6666V40H15.9999V34.6667Z" fill="#EBECED"/>
</svg>
