<svg width="24" height="25" viewBox="0 0 24 25" fill="none" xmlns="http://www.w3.org/2000/svg">
<g clip-path="url(#clip0_370_1076)">
<path d="M19.44 13.49L19.43 13.51C19.47 13.18 19.51 12.84 19.51 12.5C19.51 12.16 19.48 11.84 19.44 11.51L19.45 11.53L21.89 9.61L19.46 5.39L16.59 6.55L16.6 6.56C16.08 6.16 15.51 5.82 14.89 5.56H14.9L14.44 2.5H9.56999L9.13 5.57H9.14C8.52 5.83 7.95 6.17 7.43 6.57L7.44 6.56L4.56 5.39L2.12 9.61L4.56 11.53L4.57 11.51C4.53 11.84 4.5 12.16 4.5 12.5C4.5 12.84 4.53 13.18 4.58 13.51L4.57 13.49L2.47 15.14L2.14 15.4L4.57 19.6L7.45 18.45L7.43 18.41C7.96 18.82 8.52999 19.16 9.16 19.42H9.13L9.58 22.5H14.43C14.43 22.5 14.46 22.32 14.49 22.08L14.87 19.43H14.86C15.48 19.17 16.06 18.83 16.59 18.42L16.57 18.46L19.45 19.61L21.88 15.41C21.88 15.41 21.74 15.29 21.55 15.15L19.44 13.49ZM12 16C10.07 16 8.5 14.43 8.5 12.5C8.5 10.57 10.07 9 12 9C13.93 9 15.5 10.57 15.5 12.5C15.5 14.43 13.93 16 12 16Z" fill="#0098F0"/>
</g>
<defs>
<clipPath id="clip0_370_1076">
<rect width="24" height="24" fill="white" transform="translate(0 0.5)"/>
</clipPath>
</defs>
</svg>
