<svg width="123" height="50" viewBox="0 0 123 50" fill="none" xmlns="http://www.w3.org/2000/svg">
<g clip-path="url(#clip0_401_1768)">
<path d="M18.375 11.7325H29.625V43.375C29.625 46.48 27.105 49 24 49C20.895 49 18.375 46.48 18.375 43.375V11.7325Z" fill="url(#paint0_linear_401_1768)"/>
<g style="mix-blend-mode:multiply" opacity="0.47">
<path d="M42.375 1H29.625C23.4113 1 18.375 6.03625 18.375 12.25V30.625C18.375 24.4113 23.4113 12.25 29.625 12.25H42.375C45.48 12.25 48 9.73 48 6.625C48 3.52 45.48 1 42.375 1Z" fill="url(#paint1_linear_401_1768)"/>
</g>
<path d="M42.375 1H29.625C23.4113 1 18.375 6.03625 18.375 12.25V23.5C18.375 17.2863 23.4113 12.25 29.625 12.25H42.375C45.48 12.25 48 9.73 48 6.625C48 3.52 45.48 1 42.375 1Z" fill="url(#paint2_linear_401_1768)"/>
<path d="M26.6363 1H5.625C2.52 1 0 3.52 0 6.625C0 9.73 2.52 12.25 5.625 12.25H18.375H16.5C16.5 6.41125 21.6113 1.9825 26.6363 1Z" fill="url(#paint3_linear_401_1768)"/>
</g>
<path d="M62.4436 0.534224C61.0604 5.49679 58.6314 10.4936 56 13.7107C56.641 14.8059 57.6531 17.1332 57.9567 18.0914C58.6989 17.1674 59.4748 16.1064 60.217 14.9428V32.4316H64.0292V7.51604C64.8389 5.56524 65.5474 3.58021 66.1546 1.62941L62.4436 0.534224ZM70.9789 25.9289H76.8153V27.6401H70.9789V25.9289ZM76.8153 18.3995H70.9789V16.7225H76.8153V18.3995ZM76.8153 23.054H70.9789V21.2743H76.8153V23.054ZM87.9482 27.6401H80.5937V25.9289H86.5988V23.054H80.5937V21.2743H86.5988V18.3995H80.5937V16.7225H87.206V13.5053H80.8636C80.4588 12.4444 79.8178 11.1438 79.2443 10.1171H86.4976V2.07433H82.6854V6.59198H78.9407V0.5H75.0947V6.59198H70.9452V2.07433H67.3354V10.1171H79.0756L75.6345 11.0412C76.0393 11.7941 76.4104 12.6497 76.7141 13.5053H71.4512C71.7211 12.7524 71.9572 11.9995 72.1934 11.2807L68.6848 10.2882C67.7065 13.8476 66.0871 17.3727 64.1304 19.6658C64.7377 20.5898 65.716 22.6775 66.0534 23.5674C66.5257 23.0198 66.9305 22.438 67.3691 21.7877V32.5H70.9789V31.0626H87.9482V27.6401Z" fill="url(#paint4_linear_401_1768)"/>
<path d="M110.18 8.20053H114.094V5.90749H120.909V2.34813H114.094V0.5H110.18V2.34813H106.841V5.90749H110.18V8.20053ZM97.7317 8.20053H101.645V5.94171H105.12V2.38235H101.645V0.5H97.7317V2.38235H91.0182V5.94171H97.7317V8.20053ZM92.3002 10.3567C94.0545 11.4519 96.7197 13.0947 98.0354 13.9503L100.397 10.9043C99.0137 10.0487 96.3148 8.57701 94.5943 7.58449L92.3002 10.3567ZM98.3053 17.7492C96.9558 16.7909 94.2906 15.285 92.5364 14.2925L90.1748 17.0305C92.0303 18.1599 94.628 19.8369 95.8762 20.7952L98.3053 17.7492ZM93.6497 32.3973C95.775 29.8989 98.0016 27.0925 99.8909 24.4572L97.5631 21.5139C95.3027 24.3888 92.6376 27.4348 90.7821 29.2487L93.6497 32.3973ZM103.838 21.7193C106.132 20.9663 108.392 20.0765 110.518 18.9813C112.744 20.1449 115.207 21.0348 117.737 21.7193H103.838ZM105.457 27.9139V24.7995H114.431V27.9139H105.457ZM113.79 12.6497C112.812 13.5396 111.631 14.361 110.349 15.1139C108.966 14.361 107.751 13.5396 106.807 12.6497H113.79ZM117.231 9.53529L116.59 9.70642H108.595C108.966 9.19305 109.337 8.67968 109.674 8.16631L105.828 7.37914C104.31 9.80909 101.713 12.8209 98.3727 15.0797C99.2499 15.593 100.498 16.7225 101.139 17.5096C102.286 16.6198 103.366 15.6615 104.344 14.669C105.154 15.4561 106.031 16.1749 106.942 16.8251C104.243 17.9888 101.24 18.9128 98.3727 19.4604C99.0812 20.2134 99.9583 21.7535 100.329 22.7118C100.768 22.6091 101.24 22.4722 101.679 22.3695V32.3973H105.457V31.0283H114.431V32.3973H118.378V21.8904C118.884 22.0273 119.424 22.1299 119.93 22.2326C120.402 21.2059 121.448 19.7 122.258 18.8786C119.424 18.4337 116.624 17.7492 114.128 16.8251C116.422 15.1824 118.378 13.3 119.795 11.1096L117.231 9.53529Z" fill="url(#paint5_linear_401_1768)"/>
<path d="M63.9476 49.2791V39.5449H60.6036V37.6044H69.6596V39.5449H66.3156V49.2791H63.9476Z" fill="url(#paint6_linear_401_1768)"/>
<path d="M72.9443 49.2791V40.46H74.8483L75.0403 42.0218H75.0883C75.7283 40.8544 76.7043 40.2391 77.6323 40.2391C78.1123 40.2391 78.4003 40.3022 78.6723 40.4284L78.2723 42.4163C77.9523 42.3374 77.7123 42.2743 77.3283 42.2743C76.6403 42.2743 75.7923 42.7476 75.2963 44.0255V49.2791H72.9443Z" fill="url(#paint7_linear_401_1768)"/>
<path d="M85.0006 49.5C83.0646 49.5 82.2166 48.1905 82.2166 45.966V40.46H84.5686V45.682C84.5686 47.0388 84.9526 47.5121 85.8326 47.5121C86.5686 47.5121 87.0486 47.1966 87.6566 46.4078V40.46H89.9926V49.2791H88.0726L87.8966 48.017H87.8486C87.0646 48.9163 86.2166 49.5 85.0006 49.5Z" fill="url(#paint8_linear_401_1768)"/>
<path d="M94.9161 49.2791V40.46H97.2681V49.2791H94.9161ZM96.0841 39.0243C95.2681 39.0243 94.7241 38.5194 94.7241 37.7464C94.7241 36.9891 95.2681 36.5 96.0841 36.5C96.9001 36.5 97.4601 36.9891 97.4601 37.7464C97.4601 38.5194 96.9001 39.0243 96.0841 39.0243Z" fill="url(#paint9_linear_401_1768)"/>
<path d="M104.384 49.5C102.736 49.5 102.176 48.443 102.176 46.8022V36.7051H104.528V46.8968C104.528 47.449 104.768 47.6226 104.992 47.6226C105.072 47.6226 105.136 47.6226 105.296 47.591L105.584 49.3107C105.312 49.4053 104.944 49.5 104.384 49.5Z" fill="url(#paint10_linear_401_1768)"/>
<path d="M113.366 49.5C111.11 49.5 109.062 47.7961 109.062 44.8774C109.062 41.943 111.11 40.2391 113.366 40.2391C115.606 40.2391 117.654 41.943 117.654 44.8774C117.654 47.7961 115.606 49.5 113.366 49.5ZM113.366 47.6226C114.582 47.6226 115.254 46.534 115.254 44.8774C115.254 43.2051 114.582 42.1323 113.366 42.1323C112.134 42.1323 111.462 43.2051 111.462 44.8774C111.462 46.534 112.134 47.6226 113.366 47.6226Z" fill="url(#paint11_linear_401_1768)"/>
<defs>
<linearGradient id="paint0_linear_401_1768" x1="18.375" y1="30.1304" x2="29.625" y2="30.1304" gradientUnits="userSpaceOnUse">
<stop stop-color="#FF006E"/>
<stop offset="1" stop-color="#00B3F0"/>
</linearGradient>
<linearGradient id="paint1_linear_401_1768" x1="18.375" y1="15.625" x2="48" y2="15.625" gradientUnits="userSpaceOnUse">
<stop stop-color="#FF006E"/>
<stop offset="1" stop-color="#00B3F0"/>
</linearGradient>
<linearGradient id="paint2_linear_401_1768" x1="18.375" y1="12.1076" x2="48" y2="12.1076" gradientUnits="userSpaceOnUse">
<stop stop-color="#FF006E"/>
<stop offset="1" stop-color="#00B3F0"/>
</linearGradient>
<linearGradient id="paint3_linear_401_1768" x1="-3.2441e-07" y1="6.5538" x2="26.6363" y2="6.5538" gradientUnits="userSpaceOnUse">
<stop stop-color="#FF006E"/>
<stop offset="1" stop-color="#00B3F0"/>
</linearGradient>
<linearGradient id="paint4_linear_401_1768" x1="56" y1="16.2975" x2="122.258" y2="16.2975" gradientUnits="userSpaceOnUse">
<stop stop-color="#FF006E"/>
<stop offset="1" stop-color="#00B3F0"/>
</linearGradient>
<linearGradient id="paint5_linear_401_1768" x1="56" y1="16.2975" x2="122.258" y2="16.2975" gradientUnits="userSpaceOnUse">
<stop stop-color="#FF006E"/>
<stop offset="1" stop-color="#00B3F0"/>
</linearGradient>
<linearGradient id="paint6_linear_401_1768" x1="60.6036" y1="42.9177" x2="117.654" y2="42.9177" gradientUnits="userSpaceOnUse">
<stop stop-color="#FF006E"/>
<stop offset="1" stop-color="#00B3F0"/>
</linearGradient>
<linearGradient id="paint7_linear_401_1768" x1="60.6036" y1="42.9177" x2="117.654" y2="42.9177" gradientUnits="userSpaceOnUse">
<stop stop-color="#FF006E"/>
<stop offset="1" stop-color="#00B3F0"/>
</linearGradient>
<linearGradient id="paint8_linear_401_1768" x1="60.6036" y1="42.9177" x2="117.654" y2="42.9177" gradientUnits="userSpaceOnUse">
<stop stop-color="#FF006E"/>
<stop offset="1" stop-color="#00B3F0"/>
</linearGradient>
<linearGradient id="paint9_linear_401_1768" x1="60.6036" y1="42.9177" x2="117.654" y2="42.9177" gradientUnits="userSpaceOnUse">
<stop stop-color="#FF006E"/>
<stop offset="1" stop-color="#00B3F0"/>
</linearGradient>
<linearGradient id="paint10_linear_401_1768" x1="60.6036" y1="42.9177" x2="117.654" y2="42.9177" gradientUnits="userSpaceOnUse">
<stop stop-color="#FF006E"/>
<stop offset="1" stop-color="#00B3F0"/>
</linearGradient>
<linearGradient id="paint11_linear_401_1768" x1="60.6036" y1="42.9177" x2="117.654" y2="42.9177" gradientUnits="userSpaceOnUse">
<stop stop-color="#FF006E"/>
<stop offset="1" stop-color="#00B3F0"/>
</linearGradient>
<clipPath id="clip0_401_1768">
<rect width="48" height="48" fill="white" transform="translate(0 1)"/>
</clipPath>
</defs>
</svg>
